# xmcd CD database file
#
# Track frame offsets:
#	150
#	21123
#	43536
#	64499
#
# Disc length: 1156 seconds
#
# Revision: 0
# Processed by: cddbd v1.5PL3 Copyright (c) Steve Scherf et al.
# Submitted via: CDex 1.50beta8
#
DISCID=30048204
DTITLE=童子-T - In-mail feat.JUJU
DYEAR=2002
DGENRE=Hip-Hop
TTITLE0=In-mail feat.JUJU
TTITLE1=Nipponia Nippon feat.YAMAKOU
TTITLE2=In-mail feat.JUJU(inst)
TTITLE3=Nipponia Nippon feat.YAMAKOU(inst)
EXTD=YEAR: 2002
EXTT0=
EXTT1=
EXTT2=
EXTT3=
PLAYORDER=
